# xmcd
#
# Track frame offsets:
# 150
# 38599
# 67477
# 90870
# 107455
# 135863
# 174619
# 199423
# 234155
# 266900
#
# Disc length: 3716 seconds
#
# Revision: 0
# Processed by: cddbd v1.5.2PL0 Copyright (c) Steve Scherf et al.
# Submitted via: Axialis_AX_CDPlayer 2.6
#
DISCID=810e820a
DTITLE=Slewfoot and the angels - Grasshopper Pie
DYEAR=1900
DGENRE=
TTITLE0=Give Your Love
TTITLE1=Oh Boy
TTITLE2=Dragon Dancer
TTITLE3=You Gonna get It
TTITLE4=Crazy Letters
TTITLE5=Grasshopper Pie
TTITLE6=The Last Shuffle
TTITLE7=Rivers
TTITLE8=Sinkin Down Slow
TTITLE9=St. Louis St. #2
EXTD=
EXTT0=
EXTT1=
EXTT2=
EXTT3=
EXTT4=
EXTT5=
EXTT6=
EXTT7=
EXTT8=
EXTT9=
PLAYORDER=
